# xmcd CD Database Entry
#
# Track frame offsets:
# 150
# 20402
# 36412
# 56552
# 75717
# 95855
# 110885
# 127240
# 151430
#
# Disc length: 2572 seconds
#
# Revision: 1
# Processed by: cddbd v1.4b41PL1 Copyright (c) Steve Scherf et al.
# Submitted via: tcd 2.0b
#
DISCID=800a0a09
DTITLE=Rory Block - Angel Of Mercy
DYEAR=1900
DGENRE=
TTITLE0=Angel Of Mercy
TTITLE1=It Ain't Right
TTITLE2=I'll Be Gone
TTITLE3=Who Was Calling
TTITLE4=Womebody's Baby
TTITLE5=Big Bad Agent Man
TTITLE6=You Deserve The Best
TTITLE7=Love Without The Heart
TTITLE8=A Father And Two Sons
EXTD=
EXTT0=
EXTT1=
EXTT2=
EXTT3=
EXTT4=
EXTT5=
EXTT6=
EXTT7=
EXTT8=
PLAYORDER=
